<svg width="160" height="21" viewBox="0 0 160 21" fill="none" xmlns="http://www.w3.org/2000/svg">
<mask id="mask0_1239_20338" style="mask-type:luminance" maskUnits="userSpaceOnUse" x="0" y="0" width="22" height="21">
<path fill-rule="evenodd" clip-rule="evenodd" d="M0 0H21.3534V20.8517H0V0Z" fill="white"/>
</mask>
<g mask="url(#mask0_1239_20338)">
<path fill-rule="evenodd" clip-rule="evenodd" d="M11.0276 14.8366C11.0276 14.1359 11.3283 14.0346 12.0301 14.4366C13.2331 15.1384 14.4361 15.7389 14.4361 15.7389C14.4361 15.3379 14.8371 15.0371 15.5388 15.2376C16.2406 15.4391 16.9424 15.5384 16.9424 15.5384C16.9424 15.5384 16.5414 14.6371 16.3409 14.2351C16.0401 13.5333 16.3409 13.1333 16.6416 13.0321C16.6416 13.0321 16.2406 12.7313 15.9398 12.5308C15.3383 12.1308 15.4386 11.6296 16.0401 11.4291C16.8421 11.0281 17.9449 10.6261 17.9449 10.6261C17.6441 10.4266 17.2431 9.92533 17.6441 9.22257C18.0451 8.62107 18.7469 7.71881 18.7469 7.71881H16.8421C16.1404 7.71881 15.9398 7.11731 15.9398 6.7163C15.9398 6.7163 14.8371 7.51931 14.0351 8.02057C13.3333 8.52182 12.7318 8.02056 12.8321 7.21756C13.0326 6.01555 13.1328 4.61104 13.1328 4.61104C12.7318 5.01204 12.0301 4.9128 11.6291 4.31029C11.1278 3.30778 10.6266 2.10477 10.6266 2.10477C10.6266 2.10477 10.1253 3.30778 9.62406 4.31029C9.32331 4.9128 8.62155 5.01204 8.22055 4.71129C8.22055 4.71129 8.3208 6.1148 8.5213 7.31781C8.62155 8.01956 8.02005 8.52081 7.3183 8.01956C6.51629 7.51831 5.31328 6.7163 5.31328 6.7163C5.31328 7.11731 5.11278 7.61856 4.41103 7.71881H2.50627C2.50627 7.71881 3.20802 8.62107 3.60902 9.22257C4.01003 9.82407 3.60902 10.4266 3.30827 10.6261C3.30827 10.6261 4.31078 11.1273 5.21303 11.4291C5.81454 11.7288 6.01504 12.1308 5.31328 12.5308C5.11278 12.7313 4.61153 13.0321 4.61153 13.0321C5.01253 13.1333 5.31328 13.5333 5.01253 14.2351C4.81203 14.6371 4.41103 15.5384 4.41103 15.5384C4.41103 15.5384 5.11278 15.3379 5.81454 15.2376C6.51629 15.0371 6.81704 15.4391 6.91729 15.7389C6.91729 15.7389 8.1203 15.0371 9.32331 14.4366C9.92481 14.0346 10.3258 14.2351 10.3258 14.8366V16.5409C10.3258 17.5434 10.1253 18.5459 9.82456 19.1484C5.31328 18.6471 1.50376 15.0371 1.50376 10.2251C1.50376 5.31279 5.61404 1.30277 10.7268 1.30277C15.8396 1.30277 19.9499 5.31279 19.9499 10.2251C19.9499 14.8366 16.3409 18.6471 11.7293 19.1484V20.3504C17.1429 19.8491 21.3534 15.5384 21.3534 10.2251C21.3534 4.51079 16.5414 -0.000488281 10.6266 -0.000488281C4.81203 -0.000488281 0 4.51079 0 10.1248C0 15.0371 3.70927 19.1484 8.62155 20.0496C9.42356 20.2501 9.92481 20.3504 10.4261 20.8516C10.9273 19.8491 11.0276 17.8441 11.0276 16.7414V14.8366Z" fill="#F01428"/>
</g>
<path fill-rule="evenodd" clip-rule="evenodd" d="M56.4421 9.62361H57.5448C60.4521 9.62361 61.0536 9.12236 61.0536 7.71885C61.0536 6.31534 59.7503 6.11484 57.8456 6.11484H56.4421V9.62361ZM54.0356 15.5385V4.71143H59.3489C62.1559 4.71143 63.4592 5.91443 63.5595 7.41819C63.5595 8.11995 63.4592 8.8217 62.9579 9.32295C62.4567 9.82421 62.2562 10.0247 61.3539 10.526L65.364 15.6387H62.4567L58.8477 11.0272H56.4417V15.5385H54.0356Z" fill="#2E2A25"/>
<path fill-rule="evenodd" clip-rule="evenodd" d="M33.9829 11.2279H37.6922L35.7874 6.91714L33.9829 11.2279ZM30.2744 15.5385L34.9862 4.71143H37.8935L42.6052 15.5385H39.698L38.3947 12.6312H33.3822L32.0789 15.5385H30.2744Z" fill="#2E2A25"/>
<mask id="mask1_1239_20338" style="mask-type:luminance" maskUnits="userSpaceOnUse" x="0" y="0" width="160" height="21">
<path fill-rule="evenodd" clip-rule="evenodd" d="M0 20.8521H160V0H0V20.8521Z" fill="white"/>
</mask>
<g mask="url(#mask1_1239_20338)">
<path fill-rule="evenodd" clip-rule="evenodd" d="M45.9155 15.539H48.4218V4.71191H45.9155V15.539Z" fill="#2E2A25"/>
<path fill-rule="evenodd" clip-rule="evenodd" d="M83.4089 15.1382C82.2059 15.6394 80.7021 15.8389 78.8976 15.8389C76.7923 15.8389 75.0881 15.3377 73.8851 14.3352C72.6821 13.3327 72.0806 11.9302 72.0806 10.1257C72.0806 8.32115 72.6821 6.81739 73.8851 5.91514C75.0881 4.91263 76.7923 4.41138 79.0981 4.41138C80.5016 4.41138 81.9051 4.51163 83.4089 4.81238V6.61689C81.8039 6.11564 80.3011 5.91514 79.1984 5.91514C77.7949 5.91514 76.7923 6.31614 75.9903 7.01789C75.2886 7.71965 74.8876 8.8224 74.8876 10.1257C74.8876 11.4289 75.2886 12.4314 76.0906 13.2334C76.8926 13.9352 77.9954 14.3352 79.3989 14.3352C80.7021 14.3352 82.1056 14.0344 83.4089 13.5332V15.1382Z" fill="#2E2A25"/>
<path fill-rule="evenodd" clip-rule="evenodd" d="M90.3259 11.2279H94.0352L92.2307 6.91714L90.3259 11.2279ZM86.5156 15.5385L91.2274 4.71143H94.1357L98.8465 15.5385H95.9402L94.6369 12.6312H89.6244L88.3201 15.5385H86.5156Z" fill="#2E2A25"/>
<path fill-rule="evenodd" clip-rule="evenodd" d="M121.603 11.228H125.312L123.407 6.9172L121.603 11.228ZM117.895 15.5385L122.606 4.71143H125.514L130.226 15.5385H127.318L126.015 12.6312H121.002L119.7 15.5385H117.895Z" fill="#2E2A25"/>
<path fill-rule="evenodd" clip-rule="evenodd" d="M152.382 4.71143L147.67 15.5385H149.474L150.778 12.6312H155.79L157.093 15.5385H160.001L155.289 4.71143H152.382ZM153.183 6.9172L155.088 11.228H151.378L153.183 6.9172Z" fill="#2E2A25"/>
<path fill-rule="evenodd" clip-rule="evenodd" d="M102.458 15.5385V4.71143H105.364L112.182 12.4307V4.71143H114.287V15.5385H111.58L104.563 7.41819V15.5385H102.458Z" fill="#2E2A25"/>
<path fill-rule="evenodd" clip-rule="evenodd" d="M136.241 14.0346H138.145C139.448 14.0346 140.451 13.7339 141.152 13.0321C141.855 12.3304 142.155 11.4281 142.155 10.0246C142.155 9.0221 141.855 8.11985 141.354 7.41809C140.952 6.91684 140.552 6.61609 140.051 6.41559C139.549 6.21509 138.848 6.11484 137.845 6.11484H136.341V14.0346H136.241ZM133.735 15.5385V4.71143H138.947C140.853 4.71143 142.256 5.21268 143.259 6.01468C144.261 6.91694 144.762 8.2202 144.762 9.82421C144.762 11.6297 144.261 13.0322 143.157 13.9345C142.056 14.937 140.651 15.4382 138.747 15.4382H133.735V15.5385Z" fill="#2E2A25"/>
</g>
</svg>
