<svg width="83" height="28" viewBox="0 0 83 28" fill="none" xmlns="http://www.w3.org/2000/svg">
<path d="M8.58485 19.5886C7.00889 19.5886 6.25139 18.377 6.64698 16.9755C7.46367 14.0706 12.7116 9.76593 16.2878 9.76593C18.8956 9.76593 18.6971 12.0994 17.1683 14.0897L16.3232 15.0252C13.2922 17.9995 10.4823 19.5886 8.58485 19.5886ZM21.367 0C16.8028 0.00177234 11.7768 2.79391 8.6203 5.43824L8.86949 5.79944C13.7689 2.36501 20.5673 0.131862 22.4413 3.48158C23.431 5.2486 21.7512 8.81738 19.3855 11.6379C19.9512 10.3923 19.5776 8.00069 16.2789 8.00069C10.7953 8.00069 0 15.2648 0 22.699C0 25.6769 2.06584 27.6198 5.46873 27.6198C14.5771 27.6198 26.9296 12.6896 26.9296 5.19082C26.9296 2.54189 25.4058 0 21.367 0Z" fill="#000066"/>
<path d="M33.0933 19.5885C32.563 19.5885 32.1217 19.4035 31.8456 19.0657C31.5578 18.7116 31.472 18.2096 31.6085 17.6914C31.9115 16.567 33.1235 15.6837 34.3698 15.6837H37.3012L36.2538 19.5885H33.0933ZM41.5183 7.88258C40.68 6.85179 39.3227 6.39062 38.3515 6.39062H33.0246L32.1203 9.76303H37.1442L37.6256 9.81372C37.6305 9.81372 38.0867 9.86689 38.3412 10.2093C38.5468 10.4957 38.5769 10.9211 38.4291 11.479L38.1916 12.3666H35.0262C32.3018 12.3666 28.5037 14.3211 27.6569 17.478C27.2358 19.0522 27.6048 20.4158 28.4229 21.4179C29.2346 22.4126 30.7666 22.9616 32.4216 22.9616H35.3531H35.3513H39.0771L40.8246 16.4355L42.111 11.6385C42.6161 9.7524 42.0688 8.55429 41.5183 7.88258Z" fill="#000066"/>
<path d="M78.111 6.39062C76.6697 6.39062 75.3305 6.81705 74.2416 7.62417C73.1421 8.43838 72.5356 9.41672 72.174 10.7662C71.3896 13.6909 73.6879 15.1024 75.5347 16.103C76.8594 16.8205 78.005 17.4394 77.7569 18.356C77.5818 19.0139 77.2943 19.5896 75.6648 19.5896H70.6906L69.7881 22.9616H75.294C76.7704 22.9616 78.133 22.6543 79.2308 21.8114C80.3296 20.9656 80.9506 19.7874 81.3345 18.3493C81.7032 16.9807 81.4547 15.6734 80.5738 14.6979C79.8397 13.8788 78.7838 13.3098 77.8533 12.8072C76.6609 12.1656 75.5365 11.5602 75.7329 10.8264C75.853 10.3823 76.2936 9.76303 77.2567 9.76303H82.0956L83.0002 6.39062H78.111Z" fill="#000066"/>
<path d="M49.2429 6.39062C47.802 6.39062 46.4632 6.81705 45.3739 7.62417C44.2743 8.43838 43.6678 9.41672 43.3027 10.7662C42.5201 13.6909 44.8202 15.1024 46.6666 16.103C47.992 16.8205 49.1348 17.4394 48.8891 18.356C48.7123 19.0139 48.4262 19.5896 46.7967 19.5896H41.8232L40.9189 22.9616H46.4245C47.9027 22.9616 49.2649 22.6543 50.3627 21.8114C51.4633 20.9656 52.0829 19.7874 52.4668 18.3493C52.834 16.9807 52.5852 15.6734 51.7079 14.6979C50.9738 13.8788 49.916 13.3098 48.9838 12.8072C47.7931 12.1656 46.6702 11.5602 46.8669 10.8264C46.9849 10.3823 47.4273 9.76303 48.3886 9.76303H53.2246L54.1307 6.39062H49.2429Z" fill="#000066"/>
<path d="M56.755 6.39062L52.4365 22.9616H56.0851L60.4 6.39062H56.755Z" fill="#000066"/>
<path d="M70.1068 6.39062C63.6835 6.41367 60.3221 10.6914 59.2552 14.6763C57.9911 19.4014 60.5064 22.962 65.1064 22.962H68.1888L69.0913 19.5899H66.0099C64.2883 19.5899 61.9208 18.2352 62.875 14.6763C63.6328 11.8477 66.391 9.76338 69.4163 9.76338H71.3737L72.278 6.39098L70.1068 6.39062Z" fill="#000066"/>
</svg>
