<svg width="50" height="50" viewBox="0 0 50 50" fill="none" xmlns="http://www.w3.org/2000/svg">
<path d="M24.9992 0C11.1921 0 0 11.192 0 24.9992C0 38.8063 11.192 50 24.9992 50C38.8063 50 50 38.8063 50 24.9992C50 11.1921 38.8063 0 24.9992 0ZM24.9877 3.08247C37.1074 3.08247 46.9323 12.9074 46.9323 25.0271C46.9323 37.1467 37.1074 46.9717 24.9877 46.9717C12.8681 46.9717 3.04313 37.1467 3.04313 25.0271C3.04313 12.9074 12.8681 3.08247 24.9877 3.08247Z" fill="#7509B7"/>
<path d="M12.5397 16.4534V33.4743H19.4654C22.6131 33.4743 25.0319 31.509 25.0319 28.3964C25.0319 25.6511 22.8889 24.6039 22.8889 24.6039C22.8889 24.6039 24.5334 23.5537 24.5334 21.2181C24.5334 18.5052 22.3916 16.4534 19.2326 16.4534L12.5397 16.4534ZM16.3698 19.7802H18.416C19.8704 19.7802 20.5049 20.5278 20.5049 21.451C20.5049 22.4532 19.7864 23.0857 18.5128 23.0857H16.3698V19.7802ZM16.3698 26.4961H18.416C19.8704 26.4961 20.5049 27.2436 20.5049 28.1668C20.5049 29.1691 19.7864 29.8015 18.5128 29.8015H16.3698V26.4961Z" fill="#7509B7"/>
<path d="M30.1688 33.4211V20.3567H26.3386V16.4216H38.2488V20.3567H34.2613V33.4211H30.1688Z" fill="#7509B7"/>
</svg>
