<svg width="104" height="104" viewBox="0 0 104 104" fill="none" xmlns="http://www.w3.org/2000/svg">
<g filter="url(#filter0_d_962_99844)">
<g style="mix-blend-mode:multiply">
<path opacity="0.92" d="M21.3957 17.4444C13.1188 25.7737 8 37.2536 8 49.9234C8 75.3678 28.6249 96.0002 54.0767 96.0002C66.7465 96.0002 78.2264 90.8814 86.5557 82.6044L21.3957 17.4444Z" fill="#D1D7F2"/>
<path opacity="0.93" d="M21.7175 17.1226C13.4406 25.4519 8.32178 36.9318 8.32178 49.6016C8.32178 75.0459 28.9467 95.6783 54.3985 95.6783C67.0683 95.6783 78.5482 90.5595 86.8774 82.2826L21.7175 17.1226Z" fill="#D1D7F2"/>
<path opacity="0.93" d="M22.0393 16.8083C13.7624 25.1376 8.64355 36.6175 8.64355 49.2873C8.64355 74.7316 29.2684 95.3641 54.7203 95.3641C67.39 95.3641 78.8699 90.2452 87.1992 81.9683L22.0393 16.8083Z" fill="#D1D7F2"/>
<path opacity="0.94" d="M22.361 16.4865C14.0841 24.8157 8.96533 36.2956 8.96533 48.9655C8.96533 74.4098 29.5902 95.0422 55.042 95.0422C67.7118 95.0422 79.1917 89.9234 87.521 81.6465L22.361 16.4865Z" fill="#D1D7F2"/>
<path opacity="0.95" d="M22.6828 16.1647C14.4059 24.494 9.28711 35.9739 9.28711 48.6437C9.28711 74.0881 29.912 94.7205 55.3638 94.7205C68.0336 94.7205 79.5135 89.6017 87.8428 81.3248L22.6828 16.1647Z" fill="#D1D7F2"/>
<path opacity="0.95" d="M23.0046 15.8429C14.7277 24.1722 9.60889 35.6521 9.60889 48.3219C9.60889 73.7663 30.2338 94.3987 55.6856 94.3987C68.3554 94.3987 79.8353 89.2799 88.1646 81.0029L23.0046 15.8429Z" fill="#D1D7F2"/>
<path opacity="0.96" d="M23.3264 15.5211C15.0495 23.8504 9.93066 35.3303 9.93066 48.0001C9.93066 73.4445 30.5555 94.0769 55.9999 94.0769C68.6772 94.0769 80.1496 88.9581 88.4788 80.6812L23.3264 15.5211Z" fill="#D1D7F2"/>
<path opacity="0.97" d="M23.6408 15.1993C15.3639 23.5286 10.2451 35.0085 10.2451 47.6783C10.2451 73.1227 30.87 93.7551 56.3143 93.7551C68.9916 93.7551 80.464 88.6363 88.7933 80.3594L23.6408 15.1993Z" fill="#D1D7F2"/>
<path opacity="0.97" d="M23.9621 14.885C15.6852 23.2143 10.5664 34.6942 10.5664 47.364C10.5664 72.8084 31.1913 93.4408 56.6356 93.4408C69.3129 93.4408 80.7853 88.322 89.1146 80.0451L23.9621 14.885Z" fill="#D1D7F2"/>
<path opacity="0.98" d="M24.2844 14.5632C16.0075 22.8925 10.8887 34.3724 10.8887 47.0422C10.8887 72.4866 31.5136 93.119 56.9654 93.119C69.6352 93.119 81.115 88.0001 89.4443 79.7232L24.2844 14.5632Z" fill="#D1D7F2"/>
<path opacity="0.99" d="M24.6061 14.2414C16.3293 22.5707 11.2104 34.0506 11.2104 46.7204C11.2104 72.1648 31.8353 92.7972 57.2872 92.7972C69.9569 92.7972 81.4368 87.6783 89.7661 79.4014L24.6061 14.2414Z" fill="#D1D7F2"/>
<path opacity="0.99" d="M24.9279 13.9196C16.651 22.2489 11.5322 33.7288 11.5322 46.3986C11.5322 71.843 32.1571 92.4754 57.6089 92.4754C70.2787 92.4754 81.7586 87.3566 90.0879 79.0797L24.9279 13.9196Z" fill="#D1D7F2"/>
<path d="M25.2497 13.5978C16.9728 21.9271 11.854 33.407 11.854 46.0768C11.854 71.5212 32.4789 92.1536 57.9307 92.1536C70.6005 92.1536 82.0804 87.0348 90.4097 78.7579L25.2497 13.5978Z" fill="#D1D7F2"/>
</g>
<path d="M57.9229 92.161C83.3704 92.161 104 71.5318 104 46.0843C104 20.6368 83.3704 0.00747681 57.9229 0.00747681C32.4754 0.00747681 11.8462 20.6368 11.8462 46.0843C11.8462 71.5318 32.4754 92.161 57.9229 92.161Z" fill="url(#paint0_linear_962_99844)"/>
<path d="M103.992 46.0843C103.992 65.0104 92.587 81.2649 76.2652 88.3594C91.8461 80.9655 102.615 65.1002 102.615 46.7054C102.623 21.261 81.9977 0.628626 56.5533 0.628626C50.0351 0.628626 43.8311 1.98317 38.2109 4.42283C44.1904 1.58653 50.8732 0 57.9228 0C83.3672 0 103.992 20.6324 103.992 46.0768V46.0843Z" fill="#F2F2F2"/>
<path d="M64.4164 31.2282H61.6722V28.1181C61.6722 27.9901 61.5716 27.8895 61.4435 27.8895H50.0095C49.8814 27.8895 49.7808 27.9901 49.7808 28.1181V31.2282H47.0366V28.1181C47.0366 26.4808 48.3721 25.1453 50.0095 25.1453H61.4435C63.0809 25.1453 64.4164 26.4808 64.4164 28.1181V31.2282Z" fill="#7F1AFF"/>
<path d="M58.0129 49.7514H53.4393C52.1267 49.7514 51.061 48.6857 51.061 47.3731V42.708C51.061 41.3954 52.1267 40.3297 53.4393 40.3297H58.0129C59.3256 40.3297 60.3912 41.3954 60.3912 42.708V47.3731C60.3912 48.6857 59.3256 49.7514 58.0129 49.7514ZM53.8052 47.0072H57.647V43.0739H53.8052V47.0072Z" fill="#7F1AFF"/>
<path d="M74.9357 43.7599H59.0195V46.5041H74.9357V43.7599Z" fill="#7F1AFF"/>
<path d="M52.4374 46.4816L52.4336 43.7374L36.5174 43.7597L36.5212 46.5038L52.4374 46.4816Z" fill="#7F1AFF"/>
<path d="M72.7859 64.0211H38.6667C36.7229 64.0211 35.145 62.4432 35.145 60.4994V36.3507C35.145 34.4069 36.7229 32.829 38.6667 32.829H72.7859C74.7297 32.829 76.3076 34.4069 76.3076 36.3507V60.4994C76.3076 62.4432 74.7297 64.0211 72.7859 64.0211ZM38.6667 35.5732C38.2368 35.5732 37.8892 35.9207 37.8892 36.3507V60.4994C37.8892 60.9293 38.2368 61.2769 38.6667 61.2769H72.7859C73.2158 61.2769 73.5634 60.9293 73.5634 60.4994V36.3507C73.5634 35.9207 73.2158 35.5732 72.7859 35.5732H38.6667Z" fill="#7F1AFF"/>
</g>
<defs>
<filter id="filter0_d_962_99844" x="0" y="0" width="104" height="104" filterUnits="userSpaceOnUse" color-interpolation-filters="sRGB">
<feFlood flood-opacity="0" result="BackgroundImageFix"/>
<feColorMatrix in="SourceAlpha" type="matrix" values="0 0 0 0 0 0 0 0 0 0 0 0 0 0 0 0 0 0 127 0" result="hardAlpha"/>
<feOffset dx="-4" dy="4"/>
<feGaussianBlur stdDeviation="2"/>
<feComposite in2="hardAlpha" operator="out"/>
<feColorMatrix type="matrix" values="0 0 0 0 0 0 0 0 0 0 0 0 0 0 0 0 0 0 0.05 0"/>
<feBlend mode="normal" in2="BackgroundImageFix" result="effect1_dropShadow_962_99844"/>
<feBlend mode="normal" in="SourceGraphic" in2="effect1_dropShadow_962_99844" result="shape"/>
</filter>
<linearGradient id="paint0_linear_962_99844" x1="25.3467" y1="78.6606" x2="90.4993" y2="13.5006" gradientUnits="userSpaceOnUse">
<stop stop-color="white"/>
<stop offset="0.25" stop-color="#FBFBFB"/>
<stop offset="0.49" stop-color="#F2F7FB"/>
<stop offset="0.73" stop-color="#EEF4FA"/>
<stop offset="1" stop-color="#E7EAF7"/>
</linearGradient>
</defs>
</svg>
