<svg width="80" height="46" viewBox="0 0 80 46" fill="none" xmlns="http://www.w3.org/2000/svg">
<path d="M52.8672 1.6088H47.5332V10.4793L34.7967 20.5314L31.9483 18.2836L44.6842 8.23156L40.8938 5.23967L28.1572 15.2917L25.3089 13.0439L38.0455 2.99189L34.255 0L20.9688 10.486C19.6586 5.37965 15.0659 1.6088 9.60133 1.6088H0.0823807V25.333H9.60199C15.0666 25.3323 19.6593 21.5615 20.9694 16.4551L34.2556 26.9411L47.5332 16.4618V25.3323H62.6832V20.6171H52.8672V1.6088ZM9.60199 20.6178H5.41636V6.32337H9.60199C13.1412 6.32337 16.0101 9.52356 16.0101 13.4706C16.0101 17.4176 13.1412 20.6178 9.60199 20.6178Z" fill="#0076CE"/>
<path d="M79.6485 20.6178H69.8325V1.60881H64.4985V25.333H79.6485V20.6178Z" fill="#0076CE"/>
<path d="M79.6485 40.6414C79.6485 39.2228 78.8681 38.5926 77.3074 38.2771C75.7473 37.9623 74.8118 37.8042 74.8118 36.7011C74.8118 35.9135 75.4357 35.4399 76.5283 35.4399C77.9326 35.4399 78.4007 36.0702 78.4007 36.8585L78.5565 37.0159H79.1804L79.3369 36.8585C79.3369 35.2825 78.0878 34.6516 76.5277 34.6516C74.8111 34.6516 73.8756 35.598 73.8756 36.7011C73.8756 37.9623 74.8118 38.5926 76.3712 38.9074C77.9319 39.2228 78.7116 39.3802 78.7116 40.6414C78.7116 41.4291 78.2442 42.06 76.6835 42.06C75.2792 42.06 74.6553 41.2717 74.6553 40.326L74.4995 40.1685H73.8756L73.7198 40.326C73.7198 41.7445 74.8118 42.8477 76.6841 42.8477C78.7123 42.8477 79.6485 41.9019 79.6485 40.6414Z" fill="#808080"/>
<path d="M69.6628 34.6516C67.4788 34.6516 66.2303 36.2282 66.2303 38.4352V38.75C66.2303 40.9562 67.323 42.8477 69.8192 42.8477C72.0032 42.8477 72.7836 41.4291 72.9401 40.4833L72.7836 40.326H72.1597L72.0039 40.4833C71.6916 41.4297 71.0671 42.06 69.8199 42.06C67.7911 42.06 67.1672 40.1685 67.1672 39.2228L67.3237 39.0654H72.9401L73.0952 38.9074V38.4352C73.0952 36.2282 71.8468 34.6516 69.6628 34.6516ZM72.0026 38.2771H67.3223L67.1659 38.1197C67.1659 37.0159 67.7898 35.4406 69.6621 35.4406C71.5345 35.4406 72.1584 37.0166 72.1584 38.1197L72.0026 38.2771Z" fill="#808080"/>
<path d="M46.1024 31.6577L45.946 31.8151V42.5335L46.1024 42.6909H46.7263L46.8822 42.5335V31.8151L46.7263 31.6577H46.1024Z" fill="#808080"/>
<path d="M25.9746 34.6516C24.8819 34.6516 23.9464 35.1251 23.4783 35.9135H23.3225V31.8151L23.1667 31.6577H22.5428L22.3863 31.8151V42.5335L22.5428 42.6909H23.1667L23.3225 42.5335V38.2778C23.3225 36.5437 24.1029 35.4406 25.8187 35.4406C27.0672 35.4406 27.8469 36.2283 27.8469 37.8042V42.5335L28.0027 42.6909H28.6273L28.7824 42.5335V37.8042C28.7824 35.7554 27.6904 34.6516 25.9746 34.6516Z" fill="#808080"/>
<path d="M33.9321 34.6516C32.8394 34.6516 31.9033 35.1251 31.4358 35.9135H31.2794L31.1242 34.9664L30.9677 34.809H30.4996L30.3438 34.9664V42.5329L30.4996 42.6903H31.1242L31.2794 42.5329V38.2771C31.2794 36.543 32.0597 35.4399 33.7756 35.4399C35.0241 35.4399 35.8038 36.2276 35.8038 37.8036V42.5329L35.9603 42.6903H36.5842L36.74 42.5329L36.7406 37.8042C36.7406 35.7554 35.6486 34.6516 33.9321 34.6516Z" fill="#808080"/>
<path d="M41.2657 34.6523C39.2376 34.6523 37.6768 36.0715 37.6768 38.7506C37.6768 41.4297 39.2376 42.8483 41.2657 42.8483C43.2939 42.8483 44.8546 41.4297 44.8546 38.7506C44.8546 36.0715 43.2939 34.6523 41.2657 34.6523ZM41.2657 42.0607C39.7056 42.0607 38.6123 40.7995 38.6123 38.7506C38.6123 36.7018 39.705 35.4406 41.2657 35.4406C42.8258 35.4406 43.9185 36.7018 43.9185 38.7506C43.9185 40.7995 42.8258 42.0607 41.2657 42.0607Z" fill="#808080"/>
<path d="M51.5637 34.6523C49.5355 34.6523 47.9748 36.0715 47.9748 38.7506C47.9748 41.4297 49.5349 42.8483 51.5637 42.8483C53.5926 42.8483 55.152 41.4297 55.152 38.7506C55.152 36.0715 53.5919 34.6523 51.5637 34.6523ZM51.5637 42.0607C50.0043 42.0607 48.911 40.7995 48.911 38.7506C48.911 36.7018 50.0036 35.4406 51.5637 35.4406C53.1238 35.4406 54.2151 36.7018 54.2151 38.7506C54.2151 40.7995 53.1231 42.0607 51.5637 42.0607Z" fill="#808080"/>
<path d="M18.0177 35.4406C19.5784 35.4406 20.2017 36.3863 20.3575 37.3314L20.5133 37.4894H21.1378L21.2936 37.3314C21.1378 35.7554 19.8887 34.6516 18.017 34.6516C15.9888 34.6516 14.4288 35.9135 14.4288 38.75C14.4288 41.5865 15.9888 42.8477 18.017 42.8477C19.8887 42.8477 21.1378 41.7439 21.2936 40.1685L21.1378 40.0112H20.5133L20.3575 40.1685C20.2017 41.1136 19.5778 42.06 18.0177 42.06C16.4576 42.06 15.3649 40.9562 15.3649 38.75C15.3649 36.543 16.4569 35.4406 18.0177 35.4406Z" fill="#808080"/>
<path d="M64.358 32.2873L64.2022 32.4447V33.3904L64.358 33.5485H64.9819L65.1377 33.3904V32.4447L64.9819 32.2873H64.358Z" fill="#808080"/>
<path d="M10.3711 34.6516C8.18645 34.6516 6.93865 36.2282 6.93865 38.4352V38.75C6.93865 40.9562 8.0313 42.8477 10.5276 42.8477C12.7115 42.8477 13.4919 41.4291 13.6484 40.4833L13.4919 40.326H12.8687L12.7122 40.4833C12.4006 41.4297 11.776 42.06 10.5282 42.06C8.50005 42.06 7.87549 40.1685 7.87549 39.2228L8.0313 39.0654H13.6484L13.8049 38.9074V38.4352C13.8049 36.2282 12.5557 34.6516 10.3711 34.6516ZM12.7109 38.2771H8.03064L7.87483 38.1197C7.87483 37.0159 8.49873 35.4406 10.3704 35.4406C12.2421 35.4406 12.8674 37.0166 12.8674 38.1197L12.7109 38.2771Z" fill="#808080"/>
<path d="M64.358 34.809L64.2022 34.9664V42.5329L64.358 42.6903H64.9819L65.1377 42.5329V34.9664L64.9819 34.809H64.358Z" fill="#808080"/>
<path d="M8.50668 32.288L8.50735 31.8151L8.35154 31.6577H0.237527L0.0810547 31.8151V32.288L0.237527 32.4454H3.66997L3.82578 32.6027V42.5335L3.98225 42.6909H4.60615L4.76196 42.5335V32.6027L4.91777 32.4454H8.35087L8.50668 32.288Z" fill="#808080"/>
<path d="M62.0182 34.809L61.8624 34.9664L61.7066 35.9135H61.5501C61.2385 35.2832 60.4581 34.6516 59.0538 34.6516C56.8699 34.6516 55.7772 36.3856 55.7772 38.75C55.7772 41.1143 56.8699 42.8477 59.0538 42.8477C60.4588 42.8477 61.2385 42.2181 61.5501 41.5865H61.7052C61.7052 43.636 61.2372 45.2126 59.3648 45.2126C57.9605 45.2126 57.4924 44.5824 57.3366 43.7941L57.1808 43.636H56.5569L56.4011 43.7941C56.5569 45.0552 57.4931 46.0003 59.3654 46.0003C61.3943 46.0003 62.6421 44.7391 62.6421 41.5871V34.9664L62.4863 34.809H62.0182ZM59.2096 42.06C57.6489 42.06 56.7127 40.9562 56.7127 38.75C56.7127 36.5437 57.6496 35.4399 59.2096 35.4399C60.7697 35.4399 61.7052 36.543 61.7052 38.75C61.7052 40.9569 60.7684 42.06 59.2096 42.06Z" fill="#808080"/>
</svg>
