<svg width="139" height="22" viewBox="0 0 139 22" fill="none" xmlns="http://www.w3.org/2000/svg">
<path d="M136.079 10.3363C134.885 10.3363 133.92 9.37168 133.92 8.17699C133.92 6.9823 134.885 6.0177 136.079 6.0177C137.274 6.0177 138.239 6.9823 138.239 8.17699C138.247 9.36283 137.274 10.3363 136.079 10.3363ZM136.079 6.23009C135.026 6.23009 134.168 7.11504 134.168 8.16814C134.168 9.22124 135.026 10.1062 136.079 10.1062C137.132 10.1062 137.991 9.22124 137.991 8.16814C137.991 7.11504 137.132 6.23009 136.079 6.23009ZM136.654 9.30973L136.062 8.33628H135.663V9.30973H135.398V6.97345H136.159C136.557 6.97345 136.902 7.26549 136.902 7.66372C136.902 8.00885 136.672 8.23009 136.362 8.31859L136.964 9.31858H136.654V9.30973ZM136.132 7.23009H135.663V8.07965H136.132C136.415 8.07965 136.637 7.91151 136.637 7.65487C136.637 7.39823 136.424 7.23009 136.132 7.23009Z" fill="black"/>
<path d="M105.097 6.06189C105.026 6.06189 105 6.08844 104.345 6.11499C103.673 6.14154 102.407 6.16809 99.8318 6.16809H98.6371H97.9115H96.7168C94.1504 6.16809 92.876 6.14154 92.2035 6.11499C91.5575 6.08844 91.5309 6.06189 91.4513 6.06189C91.1504 6.06189 91.1504 6.26543 91.1504 6.8318V9.12384C91.1504 9.24773 91.1504 9.54862 91.3982 9.54862C91.6725 9.54862 91.7256 9.45127 92.1681 8.53092C92.4601 7.89375 93.053 6.96454 96.4424 6.938C96.7964 6.94685 96.9468 7.02649 96.9468 7.58401V19.1769C96.9468 20.1504 96.9469 20.823 95.6991 20.8937C95.1769 20.9468 94.8318 20.9645 94.8318 21.3185C94.8318 21.6902 95.1504 21.6902 95.3539 21.6902C95.8318 21.6902 97.8495 21.5929 98.2654 21.5929C99.0884 21.5929 100.389 21.6902 101.203 21.6902C101.407 21.6902 101.726 21.6902 101.726 21.3185C101.726 20.9468 101.38 20.9203 100.85 20.8937C99.6017 20.823 99.6017 20.1415 99.6017 19.1238V7.761C99.6017 7.11499 99.6814 6.97339 100.407 6.94684C103.513 7.02649 104.071 7.9203 104.354 8.53092C104.805 9.45127 104.85 9.54862 105.124 9.54862C105.372 9.54862 105.372 9.24773 105.372 9.12384V6.8318C105.398 6.25658 105.398 6.06189 105.097 6.06189Z" fill="black"/>
<path d="M78.159 17.7256C77.9378 17.7256 77.8847 17.823 77.4333 18.6991C76.336 20.823 74.7962 20.823 73.6988 20.823C71.6015 20.823 71.0794 20.5486 71.0794 18.7787V14.4955C71.0794 13.7522 71.274 13.7522 72.4687 13.7522C74.513 13.7522 75.2121 13.7787 75.7342 15.6991C75.8581 16.1769 76.0086 16.3008 76.2032 16.3008C76.5041 16.3008 76.5041 15.9557 76.5041 15.8053C76.5041 15.6017 76.4333 14.7345 76.4333 14.5575C76.4333 14.0088 76.6103 11.4424 76.6103 11.0973C76.6103 10.823 76.4864 10.7433 76.336 10.7433C76.2121 10.7433 76.0882 10.7964 75.9643 11.115C75.513 12.4336 75.2917 12.9822 72.5218 12.9822C71.0794 12.9822 71.0794 12.7787 71.0794 11.9822V8.37162C71.0794 7.12384 71.1767 6.9557 72.4245 6.9557C75.9643 6.9557 76.5661 7.9026 76.8581 8.54862C77.3094 9.46897 77.3537 9.56632 77.628 9.56632C77.8758 9.56632 77.8758 9.26543 77.8758 9.14154V6.8495C77.8758 6.27428 77.8758 6.07959 77.5749 6.07959C77.5041 6.07959 77.4776 6.10614 76.8316 6.13269C76.159 6.15924 74.8847 6.18578 72.3183 6.18578H71.1236C68.9997 6.18578 67.9289 6.15924 67.3802 6.13269C66.8316 6.10614 66.805 6.07959 66.7519 6.07959C66.5749 6.07959 66.2563 6.07959 66.2563 6.43357C66.2563 6.80525 66.6103 6.8318 67.1501 6.85835C68.3979 6.938 68.3979 7.60171 68.3979 8.62826V19.1504C68.3979 20.1681 68.3979 20.8495 67.1501 20.9203C66.628 20.9734 66.2563 20.9911 66.2563 21.3451C66.2563 21.7168 66.5838 21.7168 66.7785 21.7168C66.9555 21.7168 67.1502 21.6902 67.5484 21.6637C67.9466 21.6371 68.5661 21.6106 69.5926 21.6106H69.8935C70.044 21.6106 71.2121 21.6371 72.6369 21.6637C74.0794 21.6902 75.8227 21.7168 77.0971 21.7168C77.8227 21.7168 78.0705 21.4424 78.0971 20.9645C78.1767 20.0442 78.451 18.4424 78.451 18.1238C78.451 17.9557 78.3802 17.7256 78.159 17.7256Z" fill="black"/>
<path d="M118.841 17.7256C118.619 17.7256 118.566 17.823 118.115 18.6991C117.018 20.823 115.478 20.823 114.38 20.823C112.283 20.823 111.761 20.5486 111.761 18.7787V14.4955C111.761 13.7522 111.956 13.7522 113.15 13.7522C115.195 13.7522 115.894 13.7787 116.416 15.6991C116.54 16.1769 116.69 16.3008 116.885 16.3008C117.186 16.3008 117.186 15.9557 117.186 15.8053C117.186 15.6017 117.115 14.7345 117.115 14.5575C117.115 14.0088 117.292 11.4424 117.292 11.0973C117.292 10.823 117.168 10.7433 117.018 10.7433C116.894 10.7433 116.77 10.7964 116.646 11.115C116.195 12.4336 115.973 12.9822 113.203 12.9822C111.761 12.9822 111.761 12.7787 111.761 11.9822V8.37162C111.761 7.12384 111.858 6.9557 113.106 6.9557C116.646 6.9557 117.248 7.9026 117.54 8.54862C117.991 9.46897 118.035 9.56632 118.31 9.56632C118.557 9.56632 118.557 9.26543 118.557 9.14154V6.8495C118.557 6.27428 118.557 6.07959 118.257 6.07959C118.186 6.07959 118.159 6.10614 117.513 6.13269C116.841 6.15924 115.566 6.18578 113 6.18578H111.805C109.681 6.18578 108.611 6.15924 108.062 6.13269C107.513 6.10614 107.487 6.07959 107.434 6.07959C107.257 6.07959 106.938 6.07959 106.938 6.43357C106.938 6.80525 107.292 6.8318 107.832 6.85835C109.08 6.938 109.08 7.60171 109.08 8.62826V19.1504C109.08 20.1681 109.08 20.8495 107.832 20.9203C107.31 20.9734 106.938 20.9911 106.938 21.3451C106.938 21.7168 107.265 21.7168 107.46 21.7168C107.637 21.7168 107.832 21.6902 108.23 21.6637C108.628 21.6371 109.248 21.6106 110.274 21.6106H110.575C110.726 21.6106 111.894 21.6371 113.319 21.6637C114.761 21.6902 116.504 21.7168 117.779 21.7168C118.504 21.7168 118.752 21.4424 118.779 20.9645C118.858 20.0442 119.133 18.4424 119.133 18.1238C119.133 17.9557 119.062 17.7256 118.841 17.7256Z" fill="black"/>
<path d="M86.0088 12.0796C83.9734 11.2389 82.4955 10.6017 82.4955 8.79638C82.4955 7.80523 83.2919 6.36276 85.2654 6.38931C87.3804 6.407 87.8318 7.81408 88.1415 8.79638C88.3981 9.58399 88.4955 9.73444 88.7521 9.73444C89.1061 9.73444 89.1061 9.5309 89.1061 8.97337C89.1061 6.73444 89.1061 6.50435 88.7964 6.32736C88.4424 6.15037 86.938 5.74329 85.4689 5.74329C82.2388 5.74329 80.4601 7.77868 80.4601 10.115C80.4601 12.8141 82.4689 13.8052 84.5309 14.7167C86.3627 15.5574 88.0884 16.522 88.0884 18.5043C88.0884 20.5663 86.0796 21.2654 85.0176 21.2654C83.2123 21.2654 81.4689 19.7433 80.9822 17.522C80.9291 17.292 80.9026 17.0353 80.6725 17.0353C80.3627 17.0353 80.3539 17.3893 80.3539 17.4955C80.3362 18.4159 80.4512 19.5043 80.4866 19.8318C80.5574 20.4601 80.6548 20.9734 80.938 21.1858C81.3981 21.5132 82.6548 21.9999 84.6371 21.9999C88.0176 21.9999 90.1061 19.6371 90.1061 16.8141C90.1061 13.938 87.4335 12.6902 86.0088 12.0796Z" fill="black"/>
<path d="M26.0883 5.7522C21.2034 5.7522 17.522 9.25662 17.522 13.8407C17.522 18.6991 21.6105 22 26.0176 22C30.3007 22 34.4866 18.5398 34.4866 13.6106C34.4777 9.23892 30.8052 5.7522 26.0883 5.7522ZM26.2122 21.3009C22.8583 21.3009 20.46 17.4071 20.46 13.3097C20.46 9.7168 22.7078 6.45131 25.7875 6.45131C29.7432 6.45131 31.522 10.6991 31.522 13.708C31.522 17.3805 29.699 21.3009 26.2122 21.3009Z" fill="black"/>
<path d="M15.9292 0C15.8938 0 15.8584 0.0353982 14.885 0.0707964C13.9469 0.106195 12.0619 0.141593 8.31859 0.141593H7.53098C3.9646 0.141593 2.66372 0.106195 1.72566 0.0707964C0.82301 0.0353982 0.787612 0 0.716815 0C0.469028 0 0 -2.63737e-07 0 0.504425C0 1.00885 0.539824 1.04425 1.29204 1.11504C3.09735 1.22124 3.09735 2.19469 3.09735 3.67257V13.3894V18.5929C3.09735 19.7876 3.09735 20.6195 1.55752 20.708C0.911505 20.7699 0.486727 20.7965 0.486727 21.2301C0.486727 21.6903 0.884956 21.6903 1.13274 21.6903C1.71681 21.6903 4.25664 21.5664 4.77876 21.5664C5.79646 21.5664 7.44248 21.6903 8.45133 21.6903C8.69911 21.6903 9.09735 21.6903 9.09735 21.2301C9.09735 20.7699 8.67257 20.7345 8.02655 20.708C6.49557 20.6195 6.49558 19.7876 6.49558 18.531V13.3894V13C6.49558 11.9823 6.49558 11.5752 7.07965 11.4159C7.46018 11.3097 9.1239 11.3097 10.1858 11.3097C11.0885 11.3097 13.3894 11.3097 13.8938 13.2566C13.9646 13.4336 14.2035 14.3717 14.292 14.6283C14.354 14.8053 14.4956 15.2212 14.8673 15.2035C15.3009 15.1858 15.3009 14.7699 15.3009 14.5221L15.1593 12.8319C15.0885 12 15.0885 11.3894 15.0885 11.0708C15.0885 10.531 15.1947 8.07965 15.1947 7.57522C15.1947 7.21239 15.0885 6.9823 14.7611 6.9646C14.4425 6.9469 14.2566 7.25664 14.1858 7.53982C13.7257 9.40708 13.2124 10.2035 10.292 10.2035C9.75221 10.2035 7.61062 10.2035 7.0708 10.1327C6.60177 10.0619 6.49558 10.0265 6.49558 8.07965V3.04425C6.49558 1.35398 7.1062 1.28319 8.33628 1.28319C13.9381 1.28319 14.4071 2.0531 15.4867 4.45133C15.6195 4.75221 15.7611 5.16814 16.1593 5.16814C16.5575 5.16814 16.5575 4.59292 16.5575 4.48673V0.672567C16.5398 0.176991 16.5044 0 15.9292 0Z" fill="black"/>
<path d="M49.0358 20.938C48.3367 20.8318 47.9915 20.2123 47.4959 19.3451L45.08 15.0619C44.5048 14.0176 44.2039 13.8672 43.8853 13.6637C44.7349 13.4867 47.3013 12.8937 47.3013 9.97339C47.3013 9.09729 46.9296 6.06189 42.5136 6.06189C41.7614 6.06189 38.4517 6.15924 37.7791 6.15924C37.4782 6.15924 36.257 6.06189 36.0092 6.06189C35.1862 6.06189 35.0889 6.06189 35.0889 6.41587C35.0889 6.761 35.4429 6.78755 35.9827 6.8141C37.2039 6.8849 37.2039 7.56631 37.2039 8.58401V19.1504C37.2039 20.1946 37.2039 20.8495 35.9827 20.9468C35.4606 20.9734 35.0889 20.9999 35.0889 21.3451C35.0889 21.7168 35.4163 21.6902 35.611 21.6902C36.0623 21.6902 38.08 21.5929 38.5048 21.5929C38.6021 21.5929 41.0269 21.6902 41.4959 21.6902C41.6906 21.6902 42.0181 21.7168 42.0181 21.3628C42.0181 20.9911 41.6641 20.9645 41.1243 20.938C39.8765 20.8672 39.8765 20.1858 39.8765 19.1415V14.6548C39.8765 14.23 39.9296 14.0796 40.3544 14.0796C41.4782 14.0796 41.6021 14.1769 42.1508 15.2477L45.1685 20.9291C45.4428 21.4513 45.5402 21.6814 45.9915 21.6814C46.2128 21.6814 48.9561 21.6814 49.2747 21.6814C49.4517 21.6814 49.6995 21.6371 49.6995 21.3805C49.6729 21.115 49.5579 21.0176 49.0358 20.938ZM41.1066 13.4424C39.8588 13.4424 39.8588 13.3893 39.8588 12.5221V8.33623C39.8588 7.36278 39.8853 6.76985 41.0269 6.76985C44.1154 6.76985 44.4694 9.43357 44.4694 10.3362C44.4694 13.4424 42.0092 13.4424 41.1066 13.4424Z" fill="black"/>
<path d="M64.673 20.938C63.9739 20.8318 63.6287 20.2123 63.1332 19.3451L60.7172 15.0619C60.142 14.0176 59.8411 13.8672 59.5225 13.6637C60.3721 13.4867 62.9385 12.8937 62.9385 9.97339C62.9385 9.09729 62.5668 6.06189 58.1509 6.06189C57.3986 6.06189 54.0889 6.15924 53.4163 6.15924C53.1155 6.15924 51.8942 6.06189 51.6464 6.06189C50.8234 6.06189 50.7261 6.06189 50.7261 6.41587C50.7261 6.761 51.0801 6.78755 51.6199 6.8141C52.8411 6.8849 52.8411 7.56631 52.8411 8.58401V19.1504C52.8411 20.1946 52.8411 20.8495 51.6199 20.9468C51.0978 20.9734 50.7261 20.9999 50.7261 21.3451C50.7261 21.7168 51.0535 21.6902 51.2482 21.6902C51.6995 21.6902 53.7172 21.5929 54.142 21.5929C54.2393 21.5929 56.6641 21.6902 57.1332 21.6902C57.3278 21.6902 57.6553 21.7168 57.6553 21.3628C57.6553 20.9911 57.3013 20.9645 56.7615 20.938C55.5137 20.8672 55.5137 20.1858 55.5137 19.1415V14.6548C55.5137 14.23 55.5668 14.0796 55.9916 14.0796C57.1155 14.0796 57.2394 14.1769 57.788 15.2477L60.8057 20.9291C61.0801 21.4513 61.1774 21.6814 61.6287 21.6814C61.85 21.6814 64.5933 21.6814 64.9119 21.6814C65.0889 21.6814 65.3367 21.6371 65.3367 21.3805C65.3101 21.115 65.1951 21.0176 64.673 20.938ZM56.7438 13.4424C55.496 13.4424 55.496 13.3893 55.496 12.5221V8.33623C55.496 7.36278 55.5225 6.76985 56.6641 6.76985C59.7526 6.76985 60.1066 9.43357 60.1066 10.3362C60.1066 13.4424 57.6464 13.4424 56.7438 13.4424Z" fill="black"/>
<path d="M134.495 20.938C133.796 20.8318 133.451 20.2123 132.955 19.3451L130.539 15.0619C129.964 14.0176 129.663 13.8672 129.345 13.6637C130.194 13.4867 132.761 12.8937 132.761 9.97339C132.761 9.09729 132.389 6.06189 127.973 6.06189C127.221 6.06189 123.911 6.15924 123.239 6.15924C122.938 6.15924 121.716 6.06189 121.469 6.06189C120.646 6.06189 120.548 6.06189 120.548 6.41587C120.548 6.761 120.902 6.78755 121.442 6.8141C122.663 6.8849 122.663 7.56631 122.663 8.58401V19.1504C122.663 20.1946 122.663 20.8495 121.442 20.9468C120.92 20.9734 120.548 20.9999 120.548 21.3451C120.548 21.7168 120.876 21.6902 121.07 21.6902C121.522 21.6902 123.539 21.5929 123.964 21.5929C124.062 21.5929 126.486 21.6902 126.955 21.6902C127.15 21.6902 127.478 21.7168 127.478 21.3628C127.478 20.9911 127.124 20.9645 126.584 20.938C125.336 20.8672 125.336 20.1858 125.336 19.1415V14.6548C125.336 14.23 125.389 14.0796 125.814 14.0796C126.938 14.0796 127.062 14.1769 127.61 15.2477L130.628 20.9291C130.902 21.4513 131 21.6814 131.451 21.6814C131.672 21.6814 134.416 21.6814 134.734 21.6814C134.911 21.6814 135.159 21.6371 135.159 21.3805C135.141 21.115 135.017 21.0176 134.495 20.938ZM126.575 13.4424C125.327 13.4424 125.327 13.3893 125.327 12.5221V8.33623C125.327 7.36278 125.354 6.76985 126.495 6.76985C129.584 6.76985 129.938 9.43357 129.938 10.3362C129.938 13.4424 127.469 13.4424 126.575 13.4424Z" fill="black"/>
</svg>
