<svg width="808" height="404" viewBox="0 0 808 404" fill="none" xmlns="http://www.w3.org/2000/svg">
<path d="M0 8C0 3.58172 3.58172 0 8 0H800C804.418 0 808 3.58172 808 8V404H0V8Z" fill="#002856"/>
<path d="M611.86 185.222L610.652 199.836H604.725C595.286 199.836 590.347 207.446 590.347 214.78V247.702H573.553V185.222H589.468L589.853 192.998C593.2 187.648 599.018 185.222 606.207 185.222H611.86Z" fill="white"/>
<path d="M495.513 247.647H478.72V214.615C478.72 207.721 478.116 199.008 468.457 199.008C459.127 199.008 455.396 205.791 455.396 213.622V247.647H438.602V185.222H454.188L454.517 193.218C457.865 187.869 464.067 183.733 473.232 183.733C490.135 183.733 495.513 195.865 495.513 208.493V247.647Z" fill="white"/>
<path d="M431.303 233.088L430.151 247.316C426.144 248.419 422.522 248.805 418.241 248.805C402.436 248.805 397.826 241.526 397.826 226.857V167.575H414.619V185.167H431.303L430.151 199.78H414.619V225.533C414.619 231.434 416.211 234.577 422.248 234.577C424.827 234.633 427.736 234.302 431.303 233.088Z" fill="white"/>
<path d="M392.338 185.222L391.021 199.836H386.466C377.026 199.836 372.307 207.446 372.307 214.78V247.702H355.513V185.222H371.428L371.758 192.998C375.105 187.648 380.923 185.222 388.167 185.222H392.338Z" fill="white"/>
<path d="M279.723 240.754C268.363 246.875 256.948 250.404 241.911 249.963C214.086 249.081 194 231.71 194 202.372C194 173.145 214.306 154.451 241.966 154.01C256.015 153.789 268.528 157.373 278.351 166.086L266.552 178.108C260.46 172.925 251.57 169.892 240.868 170.333C223.471 171.16 212.934 183.843 212.714 201.325C212.495 220.295 224.074 233.309 242.13 233.805C250.637 234.026 256.728 232.868 261.997 230.497V211.14H243.228L244.49 195.259H279.778V240.754H279.723Z" fill="white"/>
<path d="M549.241 209.321C548.747 201.435 542.82 196.417 534.753 196.747C526.575 197.078 521.142 202.372 520.045 209.321H549.241ZM566.035 222.39H519.99C521.307 230.386 527.563 235.184 535.301 235.405C542.875 235.625 547.101 233.309 552.589 227.684L563.565 236.066C555.772 245.717 546.442 249.191 535.795 249.191C517.081 249.191 503.032 236.066 503.032 216.434C503.032 196.858 516.971 183.678 535.082 183.678C555.004 183.678 565.98 195.81 565.98 217.372L566.035 222.39Z" fill="white"/>
<path d="M328.786 220.405H326.426C318.469 220.405 304.529 220.791 304.584 229.173C304.639 240.919 328.786 237.224 328.786 222.997V220.405ZM344.921 206.784V247.702H330.103L329.719 241.526C325.164 247.206 317.81 249.191 310.237 249.191C298.822 249.191 288.01 243.511 287.791 230.331C287.461 209.596 311.005 208.107 325.823 208.107H328.786V207.28C328.786 200.442 324.286 196.692 315.78 196.692C309.688 196.692 303.651 199.174 299.206 203.365L289.492 193.494C298.273 186.325 307.438 183.678 317.207 183.678C336.47 183.678 344.921 192.612 344.921 206.784Z" fill="white"/>
<path d="M603.792 239.816V236.838H605.768C606.811 236.838 607.853 237.059 607.853 238.272C607.853 239.761 606.756 239.816 605.494 239.816H603.792ZM603.792 241.085H605.494L608.018 245.276H609.664L606.92 241.029C608.347 240.864 609.445 240.092 609.445 238.382C609.445 236.452 608.292 235.625 606.042 235.625H602.365V245.276H603.792V241.085ZM605.548 248.805C610.104 248.805 614 245.22 614 240.368C614 235.57 610.104 231.986 605.548 231.986C600.938 231.986 597.042 235.515 597.042 240.368C597.097 245.276 600.938 248.805 605.548 248.805ZM598.743 240.423C598.743 236.452 601.707 233.474 605.548 233.474C609.335 233.474 612.299 236.452 612.299 240.423C612.299 244.448 609.28 247.481 605.548 247.481C601.762 247.426 598.743 244.448 598.743 240.423Z" fill="white"/>
</svg>
