<svg width="74" height="50" viewBox="0 0 74 50" fill="none" xmlns="http://www.w3.org/2000/svg">
<g clip-path="url(#clip0_825_86516)">
<path d="M70.1364 22.4385C70.1294 22.17 70.1758 21.9028 70.2729 21.6526C70.37 21.4024 70.5158 21.1742 70.7017 20.9814C70.8765 20.7929 71.0881 20.6425 71.3232 20.5397C71.5583 20.4368 71.8118 20.3838 72.0682 20.3838C72.3245 20.3838 72.5781 20.4368 72.8132 20.5397C73.0483 20.6425 73.2598 20.7929 73.4347 20.9814C73.7978 21.3787 73.9993 21.8988 73.9993 22.4385C73.9993 22.9782 73.7978 23.4982 73.4347 23.8955C73.2598 24.0841 73.0483 24.2345 72.8132 24.3373C72.5781 24.4401 72.3245 24.4932 72.0682 24.4932C71.8118 24.4932 71.5583 24.4401 71.3232 24.3373C71.0881 24.2345 70.8765 24.0841 70.7017 23.8955C70.516 23.7026 70.3703 23.4744 70.2733 23.2242C70.1762 22.9741 70.1297 22.707 70.1364 22.4385ZM70.4634 22.4385C70.4575 22.6631 70.4957 22.8867 70.5759 23.0964C70.656 23.3061 70.7766 23.4978 70.9306 23.6605C71.0758 23.8174 71.2515 23.9425 71.4468 24.028C71.6421 24.1136 71.8528 24.1577 72.0658 24.1577C72.2789 24.1577 72.4896 24.1136 72.6849 24.028C72.8802 23.9425 73.0559 23.8174 73.2011 23.6605C73.5015 23.3262 73.6678 22.8915 73.6678 22.4408C73.6678 21.9901 73.5015 21.5555 73.2011 21.2211C73.0552 21.0655 72.8793 20.9415 72.684 20.8568C72.4888 20.772 72.2785 20.7283 72.0658 20.7283C71.8532 20.7283 71.6429 20.772 71.4476 20.8568C71.2524 20.9415 71.0765 21.0655 70.9306 21.2211C70.7763 21.3827 70.6555 21.5735 70.5753 21.7825C70.4951 21.9915 70.4571 22.2145 70.4634 22.4385ZM71.6734 22.6406V23.5806H71.2576V21.2305H72.0238C72.2523 21.2175 72.4788 21.2803 72.6685 21.4092C72.7472 21.4711 72.8096 21.5514 72.8503 21.6432C72.891 21.7349 72.9088 21.8353 72.9021 21.9356C72.9065 22.0415 72.8753 22.1459 72.8133 22.2317C72.7464 22.3237 72.6582 22.3979 72.5564 22.4479C72.6656 22.4855 72.7572 22.5625 72.8133 22.6641C72.8723 22.7702 72.9014 22.8904 72.8974 23.0119V23.167C72.8924 23.2343 72.8924 23.3018 72.8974 23.3691C72.9009 23.4196 72.9136 23.469 72.9348 23.5148V23.5571H72.5143C72.4976 23.5038 72.4882 23.4485 72.4863 23.3926C72.4863 23.3174 72.4863 23.2422 72.4863 23.1623V23.0166C72.4905 22.9642 72.4845 22.9115 72.4684 22.8615C72.4524 22.8115 72.4267 22.7652 72.3929 22.7252C72.3094 22.6554 72.202 22.6216 72.0939 22.6312L71.6734 22.6406ZM71.6734 22.2881H72.0892C72.1952 22.2871 72.2988 22.2562 72.3882 22.1988C72.427 22.1725 72.4585 22.1367 72.4798 22.0947C72.501 22.0528 72.5113 22.0061 72.5097 21.9591C72.5158 21.9068 72.5093 21.8538 72.4906 21.8047C72.4718 21.7556 72.4415 21.7118 72.4022 21.6771C72.2899 21.614 72.1613 21.5861 72.0331 21.5972H71.6734V22.2881Z" fill="#284A7B"/>
<path d="M13.5854 20.2717H1.99023V27.0587H5.42862V43.0486H1.99023V49.845H16.9631V43.0486H13.5854V20.2717Z" fill="#284A7B"/>
<path d="M1.8173 13.8137L5.76023 16.5915L8.68005 12.6528L11.5952 16.5915L15.5428 13.8137L12.6837 9.70577L17.3601 8.22053L15.9773 3.5674L11.1654 5.01504V0H6.1947V5.01504L1.38283 3.5674L0 8.22053L4.67639 9.70577L1.8173 13.8137Z" fill="#284A7B"/>
<path d="M32.2253 31.5003C29.4924 30.5602 27.8339 29.8599 27.8339 28.6332C27.8339 27.1667 29.142 26.2831 31.3284 26.2831C31.8911 26.289 32.4523 26.344 33.0055 26.4476L33.4727 29.6343H39.2936V21.1741C39.2936 21.1741 36.4346 19.952 31.3517 19.952C24.5871 19.952 20.2144 23.5664 20.2144 29.1596C20.2144 35.063 25.1197 36.7174 28.6982 37.9206C31.4078 38.8325 33.0662 39.4623 33.0662 40.8394C33.0662 41.4833 33.0662 43.4433 29.6793 43.4433C28.7464 43.4441 27.8167 43.3352 26.9089 43.119L26.4978 39.9229H20.5274V48.3831C20.5274 48.3831 24.0592 49.9906 29.6279 49.9906C36.2664 49.9906 40.7325 46.019 40.7325 40.1203C40.7325 34.5177 35.8132 32.7787 32.2253 31.505" fill="#284A7B"/>
<path d="M58.9946 26.7579C59.8625 26.7645 60.7277 26.8558 61.5781 27.0305L62.0686 30.3911H67.8896V21.2352C67.8896 21.2352 64.6754 19.985 59.2703 19.985C49.7306 19.985 43.3257 26.2597 43.3257 35.5941C43.3257 44.4539 48.9037 49.9577 57.8828 49.9577C64.3858 49.9577 67.8896 48.0777 67.8896 48.0777V33.2488H57.4763V38.4894L60.8913 39.0064V42.8746C60.1229 43.0338 59.34 43.111 58.5555 43.1049C53.7436 43.1049 51.0807 40.2849 51.0807 35.1147C51.0807 29.8788 54.0333 26.7532 58.9853 26.7532" fill="#284A7B"/>
</g>
<defs>
<clipPath id="clip0_825_86516">
<rect width="74" height="50" fill="white"/>
</clipPath>
</defs>
</svg>
