<svg width="104" height="104" viewBox="0 0 104 104" fill="none" xmlns="http://www.w3.org/2000/svg">
<g filter="url(#filter0_d_962_99853)">
<g style="mix-blend-mode:multiply">
<path opacity="0.92" d="M21.3957 17.4444C13.1188 25.7737 8 37.2536 8 49.9234C8 75.3678 28.6249 96.0002 54.0767 96.0002C66.7465 96.0002 78.2264 90.8814 86.5557 82.6044L21.3957 17.4444Z" fill="#D1D7F2"/>
<path opacity="0.93" d="M21.718 17.1226C13.4411 25.4519 8.32227 36.9318 8.32227 49.6016C8.32227 75.0459 28.9472 95.6783 54.399 95.6783C67.0688 95.6783 78.5487 90.5595 86.8779 82.2826L21.718 17.1226Z" fill="#D1D7F2"/>
<path opacity="0.93" d="M22.0393 16.8083C13.7624 25.1376 8.64355 36.6175 8.64355 49.2873C8.64355 74.7316 29.2684 95.3641 54.7203 95.3641C67.39 95.3641 78.8699 90.2452 87.1992 81.9683L22.0393 16.8083Z" fill="#D1D7F2"/>
<path opacity="0.94" d="M22.3615 16.4865C14.0846 24.8157 8.96582 36.2956 8.96582 48.9655C8.96582 74.4098 29.5907 95.0422 55.0425 95.0422C67.7123 95.0422 79.1922 89.9234 87.5215 81.6465L22.3615 16.4865Z" fill="#D1D7F2"/>
<path opacity="0.95" d="M22.6828 16.1647C14.4059 24.494 9.28711 35.9739 9.28711 48.6437C9.28711 74.0881 29.912 94.7205 55.3638 94.7205C68.0336 94.7205 79.5135 89.6017 87.8428 81.3248L22.6828 16.1647Z" fill="#D1D7F2"/>
<path opacity="0.95" d="M23.0041 15.8429C14.7272 24.1722 9.6084 35.6521 9.6084 48.3219C9.6084 73.7663 30.2333 94.3987 55.6851 94.3987C68.3549 94.3987 79.8348 89.2799 88.1641 81.0029L23.0041 15.8429Z" fill="#D1D7F2"/>
<path opacity="0.96" d="M23.3264 15.5211C15.0495 23.8504 9.93066 35.3303 9.93066 48.0001C9.93066 73.4445 30.5555 94.0769 55.9999 94.0769C68.6772 94.0769 80.1496 88.9581 88.4788 80.6812L23.3264 15.5211Z" fill="#D1D7F2"/>
<path opacity="0.97" d="M23.6408 15.1993C15.3639 23.5286 10.2451 35.0085 10.2451 47.6783C10.2451 73.1227 30.87 93.7551 56.3143 93.7551C68.9916 93.7551 80.464 88.6363 88.7933 80.3594L23.6408 15.1993Z" fill="#D1D7F2"/>
<path opacity="0.97" d="M23.9621 14.885C15.6852 23.2143 10.5664 34.6942 10.5664 47.364C10.5664 72.8084 31.1913 93.4408 56.6356 93.4408C69.3129 93.4408 80.7853 88.322 89.1146 80.0451L23.9621 14.885Z" fill="#D1D7F2"/>
<path opacity="0.98" d="M24.2844 14.5632C16.0075 22.8925 10.8887 34.3724 10.8887 47.0422C10.8887 72.4866 31.5136 93.119 56.9654 93.119C69.6352 93.119 81.115 88.0001 89.4443 79.7232L24.2844 14.5632Z" fill="#D1D7F2"/>
<path opacity="0.99" d="M24.6057 14.2414C16.3288 22.5707 11.21 34.0506 11.21 46.7204C11.21 72.1648 31.8348 92.7972 57.2867 92.7972C69.9565 92.7972 81.4363 87.6783 89.7656 79.4014L24.6057 14.2414Z" fill="#D1D7F2"/>
<path opacity="0.99" d="M24.9279 13.9196C16.651 22.2489 11.5322 33.7288 11.5322 46.3986C11.5322 71.843 32.1571 92.4754 57.6089 92.4754C70.2787 92.4754 81.7586 87.3566 90.0879 79.0797L24.9279 13.9196Z" fill="#D1D7F2"/>
<path d="M25.2492 13.5978C16.9723 21.9271 11.8535 33.407 11.8535 46.0768C11.8535 71.5212 32.4784 92.1536 57.9302 92.1536C70.6 92.1536 82.0799 87.0348 90.4092 78.7579L25.2492 13.5978Z" fill="#D1D7F2"/>
</g>
<path d="M57.9224 92.161C83.3699 92.161 103.999 71.5318 103.999 46.0843C103.999 20.6368 83.3699 0.00747681 57.9224 0.00747681C32.4749 0.00747681 11.8457 20.6368 11.8457 46.0843C11.8457 71.5318 32.4749 92.161 57.9224 92.161Z" fill="url(#paint0_linear_962_99853)"/>
<path d="M103.992 46.0843C103.992 65.0104 92.587 81.2649 76.2652 88.3594C91.8461 80.9655 102.615 65.1002 102.615 46.7054C102.623 21.261 81.9977 0.628626 56.5533 0.628626C50.0351 0.628626 43.8311 1.98317 38.2109 4.42283C44.1904 1.58653 50.8732 0 57.9228 0C83.3672 0 103.992 20.6324 103.992 46.0768V46.0843Z" fill="#F2F2F2"/>
<path d="M41.5768 29.718H37.7178V63.1626C37.7178 64.5834 38.8696 65.7352 40.2904 65.7352H73.735V61.8763H41.5768V29.718Z" fill="#02B680"/>
<path d="M61.1934 29.718H56.6912V58.0173H61.1934V29.718Z" fill="#02B680"/>
<path d="M51.2243 34.8633H46.7222V58.0173H51.2243V34.8633Z" fill="#02B680"/>
<path d="M66.6602 40.0086H71.1624V58.0173H66.6602V40.0086Z" fill="#02B680"/>
</g>
<defs>
<filter id="filter0_d_962_99853" x="0" y="0" width="104" height="104" filterUnits="userSpaceOnUse" color-interpolation-filters="sRGB">
<feFlood flood-opacity="0" result="BackgroundImageFix"/>
<feColorMatrix in="SourceAlpha" type="matrix" values="0 0 0 0 0 0 0 0 0 0 0 0 0 0 0 0 0 0 127 0" result="hardAlpha"/>
<feOffset dx="-4" dy="4"/>
<feGaussianBlur stdDeviation="2"/>
<feComposite in2="hardAlpha" operator="out"/>
<feColorMatrix type="matrix" values="0 0 0 0 0 0 0 0 0 0 0 0 0 0 0 0 0 0 0.05 0"/>
<feBlend mode="normal" in2="BackgroundImageFix" result="effect1_dropShadow_962_99853"/>
<feBlend mode="normal" in="SourceGraphic" in2="effect1_dropShadow_962_99853" result="shape"/>
</filter>
<linearGradient id="paint0_linear_962_99853" x1="25.3462" y1="78.6606" x2="90.4988" y2="13.5006" gradientUnits="userSpaceOnUse">
<stop stop-color="white"/>
<stop offset="0.25" stop-color="#FBFBFB"/>
<stop offset="0.49" stop-color="#F2F7FB"/>
<stop offset="0.73" stop-color="#EEF4FA"/>
<stop offset="1" stop-color="#E7EAF7"/>
</linearGradient>
</defs>
</svg>
